<svg width="34px" height="43px" viewBox="333 -1 34 43" version="1.1" xmlns="http://www.w3.org/2000/svg" xmlns:xlink="http://www.w3.org/1999/xlink">
    <!-- Generator: Sketch 41 (35326) - http://www.bohemiancoding.com/sketch -->
    <desc>Created with Sketch.</desc>
    <defs></defs>
    <path d="M366,14 L366,12.9907951 C366,11.8982124 365.108691,11 364.009205,11 L347.990795,11 C346.898212,11 346,11.8913093 346,12.9907951 L346,31 L366,31 L366,15 L365.526298,15 L346.5,15 L346,15 L346,14 L346.5,14 L365.526298,14 L366,14 Z M349,26 L351,26 L351,28 L349,28 L349,26 Z M353,26 L355,26 L355,28 L353,28 L353,26 Z M357,26 L359,26 L359,28 L357,28 L357,26 Z M361,26 L363,26 L363,28 L361,28 L361,26 Z M349,22 L351,22 L351,24 L349,24 L349,22 Z M353,22 L355,22 L355,24 L353,24 L353,22 Z M357,22 L359,22 L359,24 L357,24 L357,22 Z M361,22 L363,22 L363,24 L361,24 L361,22 Z M349,18 L351,18 L351,20 L349,20 L349,18 Z M353,18 L355,18 L355,20 L353,20 L353,18 Z M357,18 L359,18 L359,20 L357,20 L357,18 Z M361,18 L363,18 L363,20 L361,20 L361,18 Z" id="Combined-Shape" stroke="none" fill="#41c98e" fill-rule="evenodd"></path>
    <path d="M335.5,0.5 L335.5,40.5" id="Line" stroke="#d6d6d6" stroke-width="1" stroke-linecap="square" fill="none"></path>
</svg>