<svg width="20px" height="20px" viewBox="348 94 21 20" version="1.1" xmlns="http://www.w3.org/2000/svg" xmlns:xlink="http://www.w3.org/1999/xlink">
    <!-- Generator: Sketch 40.3 (33839) - http://www.bohemiancoding.com/sketch -->
    <desc>Created with Sketch.</desc>
    <defs></defs>
    <path d="M368,97 L368,95.9907951 C368,94.8982124 367.108691,94 366.009205,94 L349.990795,94 C348.898212,94 348,94.8913093 348,95.9907951 L348,114 L368,114 L368,98 L367.526298,98 L348.5,98 L348,98 L348,97 L348.5,97 L367.526298,97 L368,97 Z M351,109 L353,109 L353,111 L351,111 L351,109 Z M355,109 L357,109 L357,111 L355,111 L355,109 Z M359,109 L361,109 L361,111 L359,111 L359,109 Z M363,109 L365,109 L365,111 L363,111 L363,109 Z M351,105 L353,105 L353,107 L351,107 L351,105 Z M355,105 L357,105 L357,107 L355,107 L355,105 Z M359,105 L361,105 L361,107 L359,107 L359,105 Z M363,105 L365,105 L365,107 L363,107 L363,105 Z M351,101 L353,101 L353,103 L351,103 L351,101 Z M355,101 L357,101 L357,103 L355,103 L355,101 Z M359,101 L361,101 L361,103 L359,103 L359,101 Z M363,101 L365,101 L365,103 L363,103 L363,101 Z" id="Combined-Shape" stroke="none" fill="#2C2B57 " fill-rule="evenodd"></path>
</svg>