<svg width="19px" height="22px" viewBox="14 10 19 22" version="1.1" xmlns="http://www.w3.org/2000/svg" xmlns:xlink="http://www.w3.org/1999/xlink">
    <!-- Generator: Sketch 40.3 (33839) - http://www.bohemiancoding.com/sketch -->
    <desc>Created with Sketch.</desc>
    <defs></defs>
    <path d="M14.501204,11 C14.501204,11 14.000001,11 14,12 C14,13 14.501204,13 14.501204,13 L32.498796,13 C32.498796,13 33,13 33,12 C33,11 32.498796,11 32.498796,11 L14.501204,11 L14.501204,11 Z M14.973755,14 L31.973755,14 L29.973755,32 L16.973755,32 L14.973755,14 Z M21.973755,10 C20.973755,10 20.973755,11 20.973755,11 L25.973755,11 C25.973755,11 25.973755,10 24.973755,10 L21.973755,10 L21.973755,10 Z M19.973755,30 L20.973755,30 L19.973755,13.962891 L18.973755,13.962891 L19.973755,30 Z M26.973755,13.962891 L25.973755,30 L26.973755,30 L27.973755,13.962891 L26.973755,13.962891 L26.973755,13.962891 Z M22.973755,13.962891 L22.973755,30 L23.973755,30 L23.973755,13.962891 L22.973755,13.962891 L22.973755,13.962891 Z" id="editor-trash-delete-recycle-bin-glyph" stroke="none" fill="#FFFFFF " fill-rule="evenodd"></path>
</svg>