<svg width="20px" height="20px" viewBox="318 407 20 20" version="1.1" xmlns="http://www.w3.org/2000/svg" xmlns:xlink="http://www.w3.org/1999/xlink">
    <!-- Generator: Sketch 40.3 (33839) - http://www.bohemiancoding.com/sketch -->
    <desc>Created with Sketch.</desc>
    <defs></defs>
    <path d="M334.248752,414.495117 L323.946017,424.797852 C323.897189,424.84668 323.858127,424.866211 323.809299,424.885742 L318.574924,426.975586 C318.506564,426.995117 318.457736,426.995117 318.418674,426.995117 C318.301486,426.995117 318.20383,426.946289 318.115939,426.87793 C317.998752,426.760742 317.97922,426.575195 318.018283,426.418945 L320.108127,421.18457 C320.127658,421.135742 320.147189,421.09668 320.196017,421.047852 L330.498752,410.745117 L334.248752,414.495117 Z M337.627658,409.329102 C338.115939,409.84668 338.115939,410.62793 337.627658,411.116211 L335.498752,413.245117 L331.748752,409.495117 L333.877658,407.366211 C334.365939,406.87793 335.147189,406.87793 335.664767,407.366211 L337.627658,409.329102 L337.627658,409.329102 Z" id="Pencil" stroke="none" fill="#2C2B57 " fill-rule="evenodd"></path>
</svg>