
<svg width="13px" height="22px" viewBox="0 0 13 22" version="1.1" xmlns="http://www.w3.org/2000/svg" xmlns:xlink="http://www.w3.org/1999/xlink">
    <!-- Generator: Sketch 50 (54983) - http://www.bohemiancoding.com/sketch -->
    <desc>Created with Sketch.</desc>
    <defs></defs>
    <g id="MOBILE-Toewijzingen" stroke="none" stroke-width="1" fill="none" fill-rule="evenodd">
        <g id="Toewijzingen-Lijst-Copy" transform="translate(-306.000000, -272.000000)" fill="#FFFFFF">
            <g id="Group" transform="translate(-1.000000, 67.000000)">
                <g id="Group-6" transform="translate(299.000000, 190.000000)">
                    <path d="M12.7432432,29.6961905 L12.7432432,28.2068288 C12.7432432,27.8096637 12.7676424,27.4711758 12.8164414,27.1913549 C12.8652405,26.911534 12.9530774,26.6587964 13.079955,26.4331344 C13.2068325,26.2074724 13.3727467,25.9908401 13.5777027,25.7832311 C13.7826587,25.5756221 14.0315301,25.3273976 14.3243243,25.0385502 L16.5788288,22.9263646 C17.0668193,22.4750406 17.3108108,21.8883282 17.3108108,21.1662098 C17.3108108,20.4621444 17.0619394,19.8889715 16.5641892,19.446674 C16.066439,19.0043765 15.4369407,18.7832311 14.6756757,18.7832311 C13.8558518,18.7832311 13.1824351,19.0404819 12.6554054,19.5549912 C12.1283757,20.0695006 11.8258262,20.6968315 11.7477477,21.4370029 L8,21.1662098 C8.1171177,20.2996678 8.36110926,19.5279153 8.73198198,18.8509294 C9.10285471,18.1739434 9.58595798,17.6007705 10.1813063,17.1313936 C10.7766546,16.6620166 11.4647108,16.305476 12.2454955,16.0617611 C13.0262802,15.8180461 13.8851305,15.6961905 14.8220721,15.6961905 C15.7004548,15.6961905 16.5153866,15.813533 17.2668919,16.0482214 C18.0183972,16.2829099 18.6722945,16.6213978 19.2286036,17.0636953 C19.7849127,17.5059928 20.2192177,18.0565998 20.5315315,18.7155328 C20.8438454,19.3744659 21,20.1281656 21,20.9766547 C21,21.5724024 20.912163,22.0959303 20.7364865,22.5472543 C20.5608099,22.9985783 20.326578,23.4137901 20.0337838,23.7929023 C19.7409895,24.1720144 19.4042812,24.5330682 19.0236486,24.8760744 C18.6430161,25.2190807 18.2379901,25.5801344 17.8085586,25.9592466 C17.5352839,26.193935 17.301052,26.401541 17.1058559,26.5820706 C16.9106597,26.7626001 16.7496253,26.9476402 16.6227477,27.1371963 C16.4958702,27.3267524 16.4031534,27.5433846 16.3445946,27.7870996 C16.2860357,28.0308145 16.2567568,28.3241707 16.2567568,28.6671769 L16.2567568,29.6961905 L12.7432432,29.6961905 Z M12,34.228658 C12,33.5360139 12.2447892,32.9407817 12.734375,32.4429437 C13.2239608,31.9451057 13.8124966,31.6961905 14.5,31.6961905 C15.16667,31.6961905 15.7499975,31.9342833 16.25,32.4104762 C16.7500025,32.886669 17,33.4710788 17,34.1637229 C17,34.8563671 16.7552108,35.4515992 16.265625,35.9494372 C15.7760392,36.4472752 15.1875034,36.6961905 14.5,36.6961905 C14.166665,36.6961905 13.8489598,36.6312561 13.546875,36.5013853 C13.2447902,36.3715145 12.9791678,36.1983561 12.75,35.9819048 C12.5208322,35.7654535 12.3385423,35.5057158 12.203125,35.202684 C12.0677077,34.8996522 12,34.5749801 12,34.228658 Z" id="?"></path>
                </g>
            </g>
        </g>
    </g>
</svg>